<svg width="20" height="20" viewBox="0 0 20 20" fill="none" xmlns="http://www.w3.org/2000/svg">
<path d="M10.3077 19.5C9.80257 19.5 9.375 19.325 9.025 18.975C8.675 18.625 8.5 18.1974 8.5 17.6922V10.3077C8.5 9.80257 8.675 9.375 9.025 9.025C9.375 8.675 9.80257 8.5 10.3077 8.5H17.6923C18.1974 8.5 18.625 8.675 18.975 9.025C19.325 9.375 19.5 9.80257 19.5 10.3077V17.6922C19.5 18.1974 19.325 18.625 18.975 18.975C18.625 19.325 18.1974 19.5 17.6923 19.5H10.3077ZM10.3077 18H17.6923C17.7692 18 17.8397 17.9679 17.9038 17.9038C17.9679 17.8397 18 17.7692 18 17.6922V10.3077C18 10.2308 17.9679 10.1602 17.9038 10.0961C17.8397 10.032 17.7692 9.99998 17.6923 9.99998H10.3077C10.2308 9.99998 10.1602 10.032 10.0961 10.0961C10.032 10.1602 9.99998 10.2308 9.99998 10.3077V17.6922C9.99998 17.7692 10.032 17.8397 10.0961 17.9038C10.1602 17.9679 10.2308 18 10.3077 18ZM4.5 15.6153V6.3077C4.5 5.80257 4.675 5.375 5.025 5.025C5.375 4.675 5.80257 4.5 6.3077 4.5H15.6153V5.99998H6.3077C6.23077 5.99998 6.16024 6.03203 6.09613 6.09613C6.03203 6.16024 5.99998 6.23077 5.99998 6.3077V15.6153H4.5ZM0.5 11.6153V2.3077C0.5 1.80257 0.675 1.375 1.025 1.025C1.375 0.675 1.80257 0.5 2.3077 0.5H11.6153V1.99997H2.3077C2.23077 1.99997 2.16024 2.03203 2.09613 2.09613C2.03202 2.16024 1.99998 2.23077 1.99998 2.3077V11.6153H0.5Z" fill="#081472"/>
</svg>
