<svg width="16" height="18" viewBox="0 0 16 18" fill="none" xmlns="http://www.w3.org/2000/svg">
<path d="M3.3077 17.5C2.80898 17.5 2.38302 17.3234 2.02982 16.9702C1.67661 16.617 1.5 16.191 1.5 15.6923V3.00005H0.5V1.50008H4.99997V0.615479H11V1.50008H15.5V3.00005H14.5V15.6923C14.5 16.1975 14.325 16.625 13.975 16.975C13.625 17.325 13.1974 17.5 12.6922 17.5H3.3077ZM13 3.00005H2.99997V15.6923C2.99997 15.7821 3.02883 15.8558 3.08652 15.9135C3.14422 15.9712 3.21795 16.0001 3.3077 16.0001H12.6922C12.7692 16.0001 12.8397 15.968 12.9038 15.9039C12.9679 15.8398 13 15.7693 13 15.6923V3.00005ZM5.40385 14.0001H6.90382V5.00005H5.40385V14.0001ZM9.09613 14.0001H10.5961V5.00005H9.09613V14.0001Z" fill="#081472"/>
</svg>
