<svg width="20" height="17" viewBox="0 0 20 17" fill="none" xmlns="http://www.w3.org/2000/svg">
<path d="M0.471191 15.3077V13.0846C0.471191 12.5539 0.60485 12.0901 0.872166 11.6933C1.13947 11.2965 1.49427 10.9859 1.93659 10.7616C2.78659 10.3282 3.68402 9.97761 4.62887 9.70966C5.57373 9.44173 6.68783 9.30776 7.97117 9.30776C8.47117 9.30776 8.93623 9.32795 9.36637 9.36833C9.79648 9.40872 10.1981 9.46929 10.5711 9.55006L9.24427 10.8769C9.06093 10.8436 8.86253 10.8237 8.64907 10.8173C8.4356 10.8109 8.20963 10.8077 7.97117 10.8077C6.78783 10.8077 5.75097 10.9398 4.86059 11.2039C3.97021 11.468 3.22502 11.7667 2.62502 12.1C2.3981 12.2218 2.23239 12.3641 2.12789 12.5269C2.02341 12.6898 1.97117 12.8757 1.97117 13.0846V13.8077H8.02884L9.52882 15.3077H0.471191ZM13.425 16.0539L10.3212 12.95L11.375 11.8962L13.425 13.9462L18.475 8.89621L19.5288 9.95003L13.425 16.0539ZM7.97117 7.69231C7.00868 7.69231 6.18473 7.34961 5.49932 6.66421C4.81392 5.97879 4.47122 5.15484 4.47122 4.19236C4.47122 3.22986 4.81392 2.40591 5.49932 1.72051C6.18473 1.03509 7.00868 0.692383 7.97117 0.692383C8.93365 0.692383 9.7576 1.03509 10.443 1.72051C11.1284 2.40591 11.4711 3.22986 11.4711 4.19236C11.4711 5.15484 11.1284 5.97879 10.443 6.66421C9.7576 7.34961 8.93365 7.69231 7.97117 7.69231ZM7.97117 6.19236C8.52117 6.19236 8.992 5.99652 9.38367 5.60486C9.77533 5.21319 9.97117 4.74236 9.97117 4.19236C9.97117 3.64236 9.77533 3.17152 9.38367 2.77986C8.992 2.38819 8.52117 2.19236 7.97117 2.19236C7.42117 2.19236 6.95033 2.38819 6.55867 2.77986C6.167 3.17152 5.97117 3.64236 5.97117 4.19236C5.97117 4.74236 6.167 5.21319 6.55867 5.60486C6.95033 5.99652 7.42117 6.19236 7.97117 6.19236Z" fill="#081472"/>
</svg>
