<svg width="20" height="20" viewBox="0 0 20 20" fill="none" xmlns="http://www.w3.org/2000/svg">
<path d="M1.65646 18.3435L1.65645 18.3435C1.21576 17.9028 1 17.3813 1 16.75V3.25C1 2.61864 1.21576 2.09713 1.65645 1.65646L1.65646 1.65645C2.09713 1.21576 2.61864 1 3.25 1H16.75C17.3813 1 17.9028 1.21576 18.3435 1.65645L18.3435 1.65646C18.7842 2.09713 19 2.61864 19 3.25V16.75C19 17.3813 18.7842 17.9028 18.3435 18.3435L18.3435 18.3435C17.9028 18.7842 17.3813 19 16.75 19H3.25C2.61864 19 2.09713 18.7842 1.65646 18.3435ZM10.2108 14.2109L12.0016 11.9557L14.4397 15H5.8129L8.00241 12.8104L9.4681 14.256L9.86451 14.6469L10.2108 14.2109ZM5.36413 6.88582L5.36412 6.88581C5.1185 6.6402 5 6.35467 5 5.99998C5 5.64528 5.1185 5.35975 5.36412 5.11414L5.36413 5.11413C5.60976 4.8685 5.89531 4.75 6.25 4.75C6.60467 4.75 6.89021 4.8685 7.13585 5.11413L7.13586 5.11414C7.38148 5.35975 7.49998 5.64528 7.49998 5.99998C7.49998 6.35467 7.38148 6.6402 7.13586 6.88581L7.13585 6.88582C6.89021 7.13145 6.60467 7.24995 6.25 7.24995C5.89531 7.24995 5.60976 7.13145 5.36413 6.88582ZM3.25 18.5H16.75C17.2283 18.5 17.6512 18.327 17.9891 17.9891C18.327 17.6512 18.5 17.2283 18.5 16.75V3.25C18.5 2.77162 18.327 2.34874 17.9891 2.01085C17.6512 1.67295 17.2283 1.49997 16.75 1.49997H3.25C2.77162 1.49997 2.34874 1.67295 2.01085 2.01085C1.67295 2.34874 1.49998 2.77162 1.49998 3.25V16.75C1.49998 17.2283 1.67295 17.6512 2.01085 17.9891C2.34874 18.327 2.77162 18.5 3.25 18.5Z" stroke="#081472"/>
</svg>
