<svg width="62" height="61" viewBox="0 0 62 61" fill="none" xmlns="http://www.w3.org/2000/svg">
<path d="M5.94176 29.2983V26.4006H7.25213C7.79901 26.4006 8.25 26.3082 8.60511 26.1236C8.96733 25.9389 9.26207 25.6903 9.48935 25.3778C9.72372 25.0582 9.91903 24.7102 10.0753 24.3338L10.3842 23.5561L2.71378 7.18182H6.2081L11.929 19.7955L17.0213 7.18182H20.473L12.9304 25.218C12.6108 25.9425 12.2415 26.6136 11.8224 27.2315C11.4105 27.8494 10.8601 28.3501 10.1712 28.7337C9.48224 29.1101 8.5696 29.2983 7.43324 29.2983H5.94176ZM25.877 7.18182L31.0971 15.7152H31.2676L36.4877 7.18182H40.3017L33.5048 18.0909L40.3443 29H36.5091L31.2676 20.5838H31.0971L25.8556 29H22.0204L28.9771 18.0909L22.063 7.18182H25.877Z" fill="#081472"/>
<path d="M6.12216 56.7145V38.4545H8.24574V56.7145H6.12216ZM6.12216 53.2202C5.35038 53.2202 4.64725 53.0876 4.01278 52.8224C3.37831 52.5526 2.83144 52.169 2.37216 51.6719C1.91288 51.1747 1.55777 50.5805 1.30682 49.8892C1.06061 49.1979 0.9375 48.4332 0.9375 47.5952C0.9375 46.7476 1.06061 45.9782 1.30682 45.2869C1.55777 44.5956 1.91288 44.0014 2.37216 43.5043C2.83144 43.0071 3.37831 42.6236 4.01278 42.3537C4.64725 42.0838 5.35038 41.9489 6.12216 41.9489H6.64773V53.2202H6.12216ZM6.12216 51.4304H6.42045V43.7386H6.12216C5.6108 43.7386 5.16572 43.8428 4.78693 44.0511C4.40814 44.2547 4.09328 44.5365 3.84233 44.8963C3.59138 45.2514 3.40199 45.661 3.27415 46.125C3.15104 46.589 3.08949 47.0791 3.08949 47.5952C3.08949 48.2865 3.20076 48.9233 3.4233 49.5057C3.64583 50.0833 3.98201 50.5497 4.43182 50.9048C4.88163 51.2552 5.44508 51.4304 6.12216 51.4304ZM8.24574 53.2202H7.71307V41.9489H8.24574C9.01752 41.9489 9.72064 42.0838 10.3551 42.3537C10.9896 42.6236 11.5341 43.0071 11.9886 43.5043C12.4479 44.0014 12.8007 44.5956 13.0469 45.2869C13.2978 45.9782 13.4233 46.7476 13.4233 47.5952C13.4233 48.4332 13.2978 49.1979 13.0469 49.8892C12.8007 50.5805 12.4479 51.1747 11.9886 51.6719C11.5341 52.169 10.9896 52.5526 10.3551 52.8224C9.72064 53.0876 9.01752 53.2202 8.24574 53.2202ZM8.24574 51.4304C8.7571 51.4304 9.20218 51.331 9.58097 51.1321C9.95975 50.9285 10.2746 50.6491 10.5256 50.294C10.7765 49.9342 10.9635 49.5246 11.0866 49.0653C11.2098 48.6013 11.2713 48.1113 11.2713 47.5952C11.2713 46.9086 11.16 46.2741 10.9375 45.6918C10.7197 45.1046 10.3859 44.6335 9.93608 44.2784C9.48627 43.9186 8.92282 43.7386 8.24574 43.7386H7.94034V51.4304H8.24574Z" fill="#081472"/>
<path d="M21.5227 49.2202C20.5 49.2202 19.6075 48.9858 18.8452 48.517C18.0829 48.0483 17.491 47.3925 17.0696 46.5497C16.6482 45.7069 16.4375 44.7221 16.4375 43.5952C16.4375 42.4635 16.6482 41.474 17.0696 40.6264C17.491 39.7789 18.0829 39.1207 18.8452 38.652C19.6075 38.1832 20.5 37.9489 21.5227 37.9489C22.5455 37.9489 23.438 38.1832 24.2003 38.652C24.9626 39.1207 25.5545 39.7789 25.9759 40.6264C26.3973 41.474 26.608 42.4635 26.608 43.5952C26.608 44.7221 26.3973 45.7069 25.9759 46.5497C25.5545 47.3925 24.9626 48.0483 24.2003 48.517C23.438 48.9858 22.5455 49.2202 21.5227 49.2202ZM21.5298 47.4375C22.1927 47.4375 22.742 47.2623 23.1776 46.9119C23.6132 46.5616 23.9351 46.0952 24.1435 45.5128C24.3565 44.9304 24.4631 44.2888 24.4631 43.5881C24.4631 42.892 24.3565 42.2528 24.1435 41.6705C23.9351 41.0833 23.6132 40.6122 23.1776 40.2571C22.742 39.902 22.1927 39.7244 21.5298 39.7244C20.8622 39.7244 20.3082 39.902 19.8679 40.2571C19.4323 40.6122 19.108 41.0833 18.8949 41.6705C18.6866 42.2528 18.5824 42.892 18.5824 43.5881C18.5824 44.2888 18.6866 44.9304 18.8949 45.5128C19.108 46.0952 19.4323 46.5616 19.8679 46.9119C20.3082 47.2623 20.8622 47.4375 21.5298 47.4375Z" fill="#081472"/>
<path d="M29.8168 46.9233V45.0909H39.0213V46.9233H35.4631V56H33.3892V46.9233H29.8168Z" fill="#081472"/>
<path d="M60.7946 12.1299C60.9253 10.6356 60.2625 9.14202 58.6091 8.42536C57.1584 7.79653 55.3849 7.69986 54.0827 8.53126C51.6804 9.88532 49.1757 16.8909 49.0946 17.0707C48.6985 17.9492 47.9158 20.9829 47.619 22.4627C47.2118 24.4932 46.185 31.2043 46.1187 33.8753C46.4474 34.7071 48.551 34.7573 49.5618 34.6785L51.5354 29.3301C52.1082 27.3726 54.2022 23.7078 55.1777 22.1201C55.4402 21.6997 57.8943 17.8406 59.2309 15.9499C60.6203 14.1223 60.751 12.628 60.7946 12.1299Z" stroke="#081472" stroke-width="2"/>
<path d="M51.2755 43.9466C51.1406 46.5202 49.1641 48.3422 47.0455 48.2311C44.9268 48.1201 43.1516 46.1015 43.2865 43.528C43.4213 40.9544 45.3978 39.1324 47.5165 39.2435C49.6352 39.3545 51.4104 41.3731 51.2755 43.9466Z" stroke="#081472" stroke-width="2"/>
</svg>
