<svg width="22" height="23" viewBox="0 0 22 23" fill="none" xmlns="http://www.w3.org/2000/svg">
<path d="M2.75483 22.25C2.12344 22.25 1.58899 22.0312 1.15149 21.5937C0.713989 21.1562 0.495239 20.6218 0.495239 19.9904V2.63462C0.495239 2.00321 0.713989 1.46875 1.15149 1.03125C1.58899 0.59375 2.12344 0.375 2.75483 0.375H11.1442V2.24997H2.75483C2.65867 2.24997 2.57052 2.29003 2.4904 2.37016C2.41025 2.4503 2.37018 2.53846 2.37018 2.63462V19.9904C2.37018 20.0865 2.41025 20.1747 2.4904 20.2548C2.57052 20.3349 2.65867 20.375 2.75483 20.375H11.1442V22.25H2.75483ZM16.1683 16.649L14.8702 15.2932L17.9135 12.25H7.39424V10.375H17.9135L14.8702 7.33175L16.1683 5.97603L21.5047 11.3125L16.1683 16.649Z" fill="white"/>
</svg>
