<svg width="56" height="40" viewBox="0 0 56 40" fill="none" xmlns="http://www.w3.org/2000/svg">
<path d="M13.3333 39.9999C9.64784 39.9999 6.50427 38.7214 3.90253 36.1646C1.30084 33.6078 0 30.4828 0 26.7897C0 23.4769 1.06582 20.5632 3.19747 18.0487C5.32911 15.5342 7.97269 14.0445 11.1282 13.5795C11.9829 9.59318 13.9872 6.33333 17.141 3.8C20.2948 1.26667 23.9145 0 27.9999 0C32.8285 0 36.9245 1.68175 40.2879 5.04527C43.6514 8.40873 45.3332 12.5047 45.3332 17.3333V18.6667H46.1537C48.964 18.8855 51.3075 20.0154 53.1845 22.0564C55.0614 24.0974 55.9999 26.523 55.9999 29.3333C55.9999 32.3076 54.9742 34.8289 52.9229 36.8973C50.8717 38.9657 48.3589 39.9999 45.3845 39.9999H30.8205C29.4734 39.9999 28.3333 39.5332 27.4 38.5999C26.4667 37.6665 26 36.5264 26 35.1793V20.5742L21.0666 25.4255L18.2564 22.6409L27.9999 12.8975L37.7435 22.6409L34.9333 25.4255L29.9999 20.5742V35.1793C29.9999 35.3845 30.0854 35.5726 30.2563 35.7435C30.4273 35.9145 30.6153 35.9999 30.8205 35.9999H45.3333C47.1999 35.9999 48.7777 35.3555 50.0666 34.0666C51.3555 32.7777 51.9999 31.1999 51.9999 29.3333C51.9999 27.4666 51.3555 25.8888 50.0666 24.5999C48.7777 23.311 47.1999 22.6666 45.3333 22.6666H41.3333V17.3333C41.3333 13.6444 40.0333 10.4999 37.4333 7.89993C34.8333 5.29993 31.6888 3.99993 27.9999 3.99993C24.311 3.99993 21.1666 5.29993 18.5666 7.89993C15.9666 10.4999 14.6666 13.6444 14.6666 17.3333H13.282C10.7555 17.3333 8.57687 18.2444 6.74607 20.0666C4.91531 21.8888 3.99993 24.0888 3.99993 26.6666C3.99993 29.2444 4.91104 31.4444 6.73327 33.2666C8.55549 35.0888 10.7555 35.9999 13.3333 35.9999H19.9999V39.9999H13.3333Z" fill="#FFB800"/>
</svg>
